<svg width="70" height="56" fill="url(#Gradient1)" stroke="current" xmlns="http://www.w3.org/2000/svg"><path d="M28.343 31.878c.926.26 2.01.457 3.248.591l-.506.475c-2.32 2.038-4.742 3.029-7.278 3.029-1.5 0-2.426-.112-2.865-.288l-.186.464.186-.464a1.765 1.765 0 0 0-.645-.144.839.839 0 0 0-.54.174.72.72 0 0 0-.257.569c0 .403.302.636.524.753.236.124.548.211.904.277.708.153 1.525.226 2.447.226 3.676 0 6.902-1.293 9.656-3.86l.006-.006.4-.387c.89 1.078 1.68 2.31 2.368 3.702.141.294.343.54.616.711.273.171.585.245.913.245.375 0 .715-.213.997-.46.297-.258.613-.628.947-1.09.637-.88 1.388-2.162 2.253-3.83 2.1-.052 3.498-.104 4.184-.157.366-.028.685-.07.952-.132.256-.06.5-.143.691-.274.147-.095.286-.205.393-.334a.85.85 0 0 0 .208-.541.716.716 0 0 0-.2-.515.716.716 0 0 0-.516-.201h-.018l-.018.001-4.744.342a119.49 119.49 0 0 0 3.217-7.185 83.244 83.244 0 0 0 1.325-3.356c.148-.41.261-.75.339-1.02.072-.25.129-.492.129-.675 0-.402-.118-.79-.435-1.065-.303-.265-.705-.353-1.118-.353-.7 0-1.423.34-2.154.9-.738.565-1.536 1.396-2.395 2.474l-.001.002a122.788 122.788 0 0 0-2.44 3.2l-.002.002c-2.206 3.032-4.08 5.392-5.627 7.086-1.944-1.881-4.04-2.864-6.281-2.864-.544 0-1.035.1-1.442.339l-.011.007c-.391.244-.667.611-.667 1.099 0 .641.42 1.142.992 1.523.577.385 1.405.717 2.45 1.01zm-1.161-2.411c1.022 0 2.076.322 3.165.999a22.321 22.321 0 0 1-1.482-.284c-.803-.203-1.37-.403-1.726-.59a1.954 1.954 0 0 1-.193-.115c.066-.006.145-.01.236-.01zm-.398-.136v.001-.001zm11.09 1.593c-.654 0-1.388-.009-2.203-.027 1.213-1.4 2.498-3.074 3.854-5.018 1.636-2.319 2.944-4.101 3.926-5.351l.002-.003c.484-.624.902-1.07 1.255-1.355.18-.144.327-.236.446-.291l-.016.056c-.072.238-.182.553-.333.951-.302.795-.758 1.89-1.368 3.292l-.001.003a138.722 138.722 0 0 1-3.583 7.706c-.523.024-1.182.037-1.979.037zm7.575-12.121h-.004.004zM34.99 32.663c.403.011.743.017 1.02.017.435 0 1.422-.013 2.957-.04-.573 1.113-1.047 1.965-1.423 2.56a6.28 6.28 0 0 1-.568.792 18.758 18.758 0 0 0-1.986-3.329zm1.859 3.449.005-.004a.038.038 0 0 1-.005.004zM69.5 4.776c0 3.601-1.707 8.518-4.564 13.914-2.847 5.379-6.804 11.17-11.228 16.503-4.425 5.333-9.307 10.191-13.997 13.711-4.712 3.536-9.152 5.66-12.71 5.66C12.365 54.566.5 42.702.5 28.066c0-3.355.623-5.81 1.717-7.619 1.089-1.8 2.671-3.002 4.68-3.806 2.017-.807 4.457-1.207 7.236-1.395 2.777-.188 5.856-.162 9.15-.134 1.214.01 2.456.02 3.718.02 3.196 0 6.934-1.098 10.812-2.663 3.883-1.567 7.961-3.624 11.845-5.584l.01-.006C55.174 4.1 60.245 1.546 63.936.75 65.787.351 67.162.426 68.06 1c.864.553 1.441 1.675 1.441 3.777z"/>


 <defs>
    <linearGradient id="Gradient1"   gradientTransform="rotate(90)">
        <stop class="stop1" offset="0%"/>
        <stop class="stop2" offset="77.08%"/>
        <stop class="stop3" offset="100%"/>
      </linearGradient>
     <style type="text/css">
     .stop1{
       stop-color:#9ad5ca
     }
     .stop2 {

       stop-color:	#7f5af0
     }
     .stop3 {
       stop-color: rgba(0, 0, 0, 0) 100%
     }

     </style>
  </defs>

</svg>
