<svg width="70" height="56" fill="url(#Gradient1)"  id="Layer_1" data-name="Layer 1" xmlns="http://www.w3.org/2000/svg" viewBox="0 0 634.12 465.67"><path d="M-434.25-559.33c-1.46,5.2-5.16,9.06-8.72,13-1.47,1.6-3.42,2.75-5,4.26-9.69,9.17-19.43,18.44-32.77,22-8.44,2.22-17.12,2.67-25.24-1.7-4-2.15-7.53-4.51-8.41-9.74-.6-3.61-3.67-2.25-5.46-.89-7.77,5.87-15.31,12.06-23.08,18-5.28,4-10.78,7.73-16.2,11.55-8.36,5.89-16.56,12-25.17,17.54a130,130,0,0,1-18,9.37c-19.23,8.38-38.48,17-59.91,17.86-10.6.41-20.86-.92-30.56-6.35-13.4-7.49-19.5-19-21.28-33.62-2.35-19.23,3-37.26,8.92-55.11,4-12,8.66-23.76,13.33-35.5,2.58-6.48,5.83-12.69,8.69-19.06,5.42-12.08,10.54-24.31,16.26-36.25a215.19,215.19,0,0,1,11.76-20.81q16.5-26.43,33.42-52.6c5.92-9.15,12.15-18.1,18.46-27,2.86-4,6.29-7.66,9.42-11.5,4.69-5.75,9.27-11.59,14-17.27,5.87-7,11.81-13.94,17.86-20.78,6.5-7.34,13-14.69,19.82-21.74,5.39-5.59,11.24-10.73,16.89-16.07,5.16-4.88,10.21-9.89,15.52-14.61,9-8,18.15-15.79,27.24-23.67,7-6.08,13.64-12.72,21.14-18.15,17.49-12.67,35.56-24.6,56.28-31.41,8.94-2.93,18.34-5.29,28-3.48,14.93,2.8,24.92,11.66,30.79,25.51,5,11.83,3.58,23.82.81,35.75-1.72,7.44-3.49,15-6.46,22-4.33,10.18-9.59,20-14.78,29.79A199.58,199.58,0,0,1-377.07-793c-2.08,3.11-4.81,5.78-7.25,8.65l-1.29-.87c5.26-9.79,11.05-19.35,15.68-29.44,10.05-21.87,21.31-43.55,19.46-68.78-1.07-14.53-9.6-26.46-22.23-30.49-11.61-3.7-24.1-2.42-35.64,2.7-7,3.1-14,6.17-20.74,9.7-19.88,10.38-37.33,24.24-54.23,38.81-10.3,8.87-20.11,18.32-30.57,27a319.48,319.48,0,0,0-39.64,39.16c-13,15.31-26.4,30.31-39.2,45.79-6.13,7.4-11.48,15.47-16.85,23.46-9,13.35-18.32,26.51-26.34,40.43-12.91,22.42-25.85,44.79-36.4,68.6-8.42,19-16.24,38.18-22.88,57.77-5,14.71-8.09,30.11-11.19,45.37-1.81,8.88-.53,17.87,3.06,26.45,5.21,12.43,16.21,16.75,27.83,19.65a58.76,58.76,0,0,0,35.22-2.32c12.58-4.68,25.58-8.45,37.71-14.1,11.06-5.16,21.35-12.06,31.71-18.63s20.41-13.45,30.37-20.52c8-5.66,16.28-11.15,23.13-18,3.3-3.3,3.55-9.62,5.22-14.55q1-3,2.16-5.85c.42-1.06,1.48-2.07,1.45-3.08-.34-11.42,7.59-19.65,11.38-29.46,2.61-6.75,6.4-13.07,9.95-19.43,2.58-4.62,5.52-9.06,8.47-13.47,5.8-8.69,11.54-17.44,17.62-25.94,8.4-11.73,16.48-23.78,25.83-34.71,12.39-14.47,24.24-29.85,41.4-39.26a67.71,67.71,0,0,1,18.16-6.47c9.45-2,20.41,7.83,19.94,17.62a64.86,64.86,0,0,1-8,27.58c-11.46,21.51-26.92,39.93-44.08,57-8.2,8.18-16,16.79-24.62,24.51-16.32,14.65-33.13,28.77-49.67,43.19q-11.26,9.81-22.27,19.94c-5.65,5.2-2.44,13.67,5.45,15.75,10.68,2.81,21.54,2.48,30.77-5.2,9-7.48,18-15.06,27-22.49a48.24,48.24,0,0,1,5.91-3.6ZM-504.92-556l1.9,1.67c2.71-1.93,5.67-3.59,8.07-5.85,4.47-4.2,8.37-9,13-13.1,10.76-9.56,22.07-18.52,32.64-28.28,12.15-11.23,23.81-23,35.53-34.66,6.23-6.21,12.61-12.37,18.08-19.22,6.49-8.12,11.8-17.18,18.14-25.44,7.91-10.31,12.59-21.73,13.18-34.66.38-8.4-6.14-13.45-14.17-10.83-5.18,1.69-10.81,3.61-14.77,7.1C-405-709-416.76-698.54-427-686.91c-10,11.28-18.48,23.92-27.13,36.3-9.31,13.33-18.6,26.74-26.86,40.73-6.91,11.69-12.58,24.15-18.28,36.51C-501.85-567.88-503.09-561.81-504.92-556Z" transform="translate(714.65 923.8)"/><path d="M-413.2-577c-1.55,2.88-3.76,5.6-4.52,8.68-1.37,5.56-5.94,5.79-10,6.77-1,.23-3.4-1.62-3.54-2.72-.37-3,.18-6.12.23-9.2,0-1.35.06-3.7-.49-3.89-2.09-.7-5.27-1.77-6.52-.78a238.67,238.67,0,0,0-18.61,16.5c-4,4-7.87,7.76-8.13,14.65-.12,3.13-5.75,7.27-9.7,8.69-4.29,1.55-7.54-3.61-4.72-7.62a205.31,205.31,0,0,1,17.08-21.26,180.66,180.66,0,0,1,18.67-17.27c5-4,10.67-7.24,16.14-10.66a7.58,7.58,0,0,1,4.25-1.14c7.23.53,12.63-2.75,16.74-8.2,3.42-4.53,7.41-5.6,12.64-3.79,1.45.51,3.56.73,4.79,0,11.11-6.16,23-10,35.32-12.88a9.55,9.55,0,0,0,5-3c5.46-6.92,10.64-14,15.93-21.1a32.65,32.65,0,0,1,3.1-3.89c4.62-4.48,8-4.26,12.23.59,2.49,2.88,5,5.74,7.57,8.54,2.82,3.07,5.13,2.93,6.71-1,2.55-6.29,4.61-12.78,6.75-19.22q9.09-27.43,18.07-54.89c2.15-6.58,3.67-13.43,6.34-19.79,6.48-15.43,12.73-31.06,20.57-45.81,4.16-7.82,11.09-14.33,17.43-20.79,4.88-5,12.06-4.17,17.11,1.95,3.15,3.83,6,8.68,6.89,13.47,2.62,13.72,4,27.59,2.09,41.67-2.83,21.21-12.51,39-25.81,55.28-6.18,7.56-11.77,15.6-17.7,23.36-3.11,4.07-6.42,8-9.57,12a37.49,37.49,0,0,0-2.31,3.79l45.49-10.31.47,1a8.83,8.83,0,0,1-2.34,1.7c-9.24,2.77-18.49,5.51-27.78,8.12-7.15,2-14.81,2.85-21.39,6-6,2.86-10.64,8.32-16.15,12.28-3.43,2.47-7.44,4.13-11,6.43-1.86,1.19-4.13,2.67-4.84,4.54-3.7,9.79-7.22,19.67-10.3,29.68-2.15,7-3.45,14.2-5.18,21.3-1.6,6.55-4.2,13-4.71,19.65-1.13,14.93-3.35,30.08,2.89,44.61,2.5,5.82,4.48,6.91,11.14,6.89,2.59,0,5.19,1.35,7.78,2.09-2.31,2.15-4.6,4.32-6.95,6.42-.31.27-1,.2-1.46.2-8-.06-18.07-8.51-19.39-16.5-1.1-6.68-2.71-13.41-2.67-20.11a287.37,287.37,0,0,1,2.26-30.7,116.79,116.79,0,0,1,3.81-18c3.67-13.08,7.69-26.06,11.56-39.08.42-1.44.86-2.87,1.22-4.31,1.34-5.45-2.78-10-8.4-8.86a166,166,0,0,0-17.84,4.58,13.73,13.73,0,0,0-5.89,4.38c-9.42,11.54-18.77,23.14-27.89,34.92-5.11,6.61-9.29,14-14.72,20.29a43.94,43.94,0,0,1-13.67,11c-7.12,3.42-13.81-1.5-13.86-9.43,0-4.11,1-8.21,1.4-12.33a17.68,17.68,0,0,0-.21-3.15Zm198.39-184.9c-.4-10-1.16-19.78-6.11-28.61-3.62-6.45-8.87-6.76-12.73-.51-7,11.28-13.48,22.85-20,34.42a90.71,90.71,0,0,0-6,13.11c-3.17,8.73-5.89,17.62-8.9,26.4-4.8,14-9.81,27.87-14.47,41.89-3.3,9.92-6.21,20-9.15,30-.38,1.31.09,2.86.16,4.3,1.68-.28,3.74,0,5-.94a65.32,65.32,0,0,0,10.54-9c12.24-13.93,24.48-27.89,36.14-42.3,4.73-5.85,7.45-13.3,12-19.32a56.7,56.7,0,0,0,10.64-25.39C-216.34-745.8-215.74-753.89-214.81-761.93Zm-187,194.58,1.86.7c.61-.16,1.43-.11,1.8-.5q12.07-12.45,24-25c.54-.58.89-2.3.6-2.51a4.55,4.55,0,0,0-3-1c-5.08.77-10.19,1.51-15.17,2.76-1.88.48-4.5,2-4.95,3.58C-398.76-582.08-400.17-574.68-401.81-567.35Zm44-45.94c-8.07,2.87-15.71,3.25-21.67,9.36C-371.41-602-361.73-605.9-357.77-613.29Zm26.64-17c3.5-.53,8.1,1.76,9.49-3.3.42-1.53-1.84-4.73-3.66-5.71C-327.72-640.58-330.61-636.13-331.13-630.27Z" transform="translate(714.65 923.8)"/><path d="M-183.59-669.52c3.88-1.52,7.65-3.57,11.67-4.43,9.39-2,18.86-3.93,28.4-5,15.66-1.77,31.36-1.35,46.17,4.64,21.79,8.83,19.69,27.79,8.94,39.89A200.46,200.46,0,0,1-111-612.29c-4.4,3.6-10.59,5-16.06,7.26a3.72,3.72,0,0,1-2.7-1c.16-1.54.3-3.54,1.29-4.46,3-2.81,6.57-5,9.66-7.78,2.17-1.92,3.87-4.35,5.87-6.47s4.4-4.27,6.47-6.52c4.44-4.83,9.29-9.39,13.06-14.71,5-7,2-15.45-5.78-19.27-15.22-7.48-31.46-8-47.8-6.77-10.07.79-20,2.89-30.06,4.34-1.91.27-3.86.2-5.79.29C-183.11-668.1-183.35-668.81-183.59-669.52Z" transform="translate(714.65 923.8)"/><path d="M-161-543.17c-.1,5.52-3.25,8-10.17,7.88-4.1-.05-4.86-2.93-4.86-6.13,0-3.62,4.18-9.42,6.56-9.44C-164.24-550.91-161-547.94-161-543.17Z" transform="translate(714.65 923.8)"/>



 <defs>
    <linearGradient id="Gradient1"   gradientTransform="rotate(90)">
        <stop class="stop1" offset="0%"/>
        <stop class="stop2" offset="77.08%"/>
        <stop class="stop3" offset="100%"/>
      </linearGradient>
     <style type="text/css">
     .stop1{
       stop-color:#9ad5ca
     }
     .stop2 {

       stop-color:	#7f5af0
     }
     .stop3 {
       stop-color: rgba(0, 0, 0, 0) 100%
     }

     </style>
  </defs>

</svg>
