<svg   width="70" height="56" fill="url(#Gradient1)" stroke="current"  id="Layer_1" data-name="Layer 1" xmlns="http://www.w3.org/2000/svg" viewBox="0 0 400.12 335.21"><path d="M-346.44-127.93c-4.54,4.35-10.18,6.81-16.14,8.74a27.68,27.68,0,0,0-5.13,1.84c-4.41,2.5-4.64,4.24-2,8.6,5,8.16,5,16-.52,24.27-8.71,13.16-20.15,22.88-35.27,26.78-12.16,3.13-24.69,3.87-37.36-.21-13.16-4.24-20.06-13.31-24.32-25.54-1-2.74-2.58-7.41-4-7.45-4.73-.12-10.2.32-14.09,2.67-4.36,2.65-7.14,7.79-10.92,11.52a88,88,0,0,1-10.27,8.63,10.26,10.26,0,0,1-11.35.92c-2.26-1.21-3.88-1.22-5.56.91-2.49,3.16-5.67,5.14-9.46,2.36s-1.74-6.48-.7-9.63c1.13-3.45,3.14-6.59,4.59-10a46.5,46.5,0,0,0,1.61-5.72,26.19,26.19,0,0,0-16.65,6c-9.92,7.78-19.35,16.18-28.85,24.47-2.35,2.06-4,4.92-6.41,6.91-1.55,1.28-3.85,1.65-5.82,2.42.11-2.41-.74-5.63.49-7.09,3.4-4,7.61-7.39,11.61-10.89,7.36-6.48,14.87-12.8,22.19-19.33,6.44-5.74,14.51-7.74,22.28-10.68,4.38-1.66,8.18-5.21,11.8-8.39,4.55-4,7.95-9.95,13.1-12.5,10.35-5.14,21.46-8.87,32.48-12.49,3.66-1.2,5.81-2.77,6.84-6.25A179.26,179.26,0,0,1-431-199.68c7.17-8.82,16.07-16.24,24.24-24.23a9.56,9.56,0,0,1,3.4-2c10.31-3.58,14.17-.13,13.5,10.29a19.64,19.64,0,0,1-3.24,9.33c-7.72,11.32-15.79,22.39-23.81,33.49-6,8.34-11.95,16.77-18.35,24.81s-13.29,15.65-20,23.45c-4.95,5.77-6.61,12.68-6.11,20,.24,3.52,2.18,6.2,6.73,5.23,22.12-4.66,44.27-9.2,66.39-13.83.71-.15,1.29-.91,3.13-2.27-13.57-6.69-27.55-8.67-41.08-12.61,3.21,0,6.57-.61,9.61.11,12.27,2.92,24.4,6.47,36.7,9.3a16.67,16.67,0,0,0,9.48-.94c6.29-2.59,12.22-6,18.37-9,1.48-.7,3.27-.77,4.91-1.14C-346.87-129.08-346.65-128.5-346.44-127.93Zm-79.4,65.57c7.94-1.59,16.23-2.25,23.76-5,13.38-4.85,22.95-14.57,28.69-27.6a12.91,12.91,0,0,0-1.75-13.7c-3.37-4.13-7.61-2-11.53-.73-10.11,3.17-20.07,7-30.36,9.46-12.11,2.87-24.51,4.51-36.78,6.71-5.9,1.06-7.32,3.65-4.84,9.14C-452.31-70.08-441.74-62.67-425.84-62.36Zm-30.52-72.79,1.31.63a25.77,25.77,0,0,0,2.63-2.48c5.85-7.22,11.92-14.28,17.43-21.76,11.59-15.78,23.08-31.65,34.16-47.79,2.61-3.78,3.44-8.78,5.09-13.22l-1.7-1.39c-3.17,1.54-6.7,2.63-9.43,4.76-3.23,2.51-5.75,5.93-8.6,8.94a174.28,174.28,0,0,0-36.67,58.22C-453.89-144.68-455-139.86-456.36-135.15Zm-9.95,11.58c-.66-.42-.8-.59-.94-.59-14.91-.18-27,7.08-38.85,14.89-1,.67-1.19,4.33-.34,5.73,2.45,4,14.06,6.85,17.84,4C-479.94-106.21-471.3-113-466.31-123.57Zm-45.92,45.84,1.87.92L-496-90.35c-4.91-1.61-8.4-2.46-11.64-3.88-3.84-1.68-5.89-1.11-6,3C-513.76-86.71-512.75-82.22-512.23-77.73Z" transform="translate(746.56 351.52)"/><path d="M-581-34.43c-1,1.48-1.71,3.45-3.1,4.38-8.59,5.71-17.19,11.38-27.65,13.35-7.45,1.4-13.48-1.06-18.52-6.23-1.1-1.12-1.48-3.24-1.63-4.95-.26-2.94-.07-5.93-.07-9.92l-9.83,3.91c-11.58,4.6-22.82,10.88-34.85,13.35-14.83,3.06-30.44,4.14-44.81-3.67-9.33-5.07-15.06-13.28-19.58-22.58-7.15-14.7-6-30.29-4.2-45.64,2.36-20.72,8.26-40.64,14.62-60.54a313.19,313.19,0,0,1,29.29-65.93,416.86,416.86,0,0,1,44.62-61.84c15.38-17.49,31.76-33.57,50.46-47.27,16.11-11.8,33.3-21.38,53.8-23.31,17.69-1.66,30,7.1,39.44,20.67,10.13,14.59,12.91,31.17,10.57,48.55-.58,4.29-2.91,8.35-4.43,12.51l-1.71-.49a9.35,9.35,0,0,1-.32-2.64c2.17-13.59,2.3-27.26-1.84-40.37-4.87-15.43-13.78-28.16-30.91-31.42a43.07,43.07,0,0,0-20.09,1c-31.43,9.77-56.2,29.62-78,53.62-9.83,10.83-20,21.38-29.22,32.72A206,206,0,0,0-688-229.23c-8.7,15.32-17,30.93-24.37,46.92-9.13,19.78-16.26,40.37-20,61.94-2.2,12.6-4.8,25.2-6,37.91-1.4,15.36.65,30.37,10.79,43,5.51,6.84,12.54,11.16,21.61,12.1,24,2.52,45.8-3.93,66.31-15.85,1.73-1,3.43-2,5.16-3,5.57-3.21,10.11-7.15,12.9-13.31a172.67,172.67,0,0,1,31.57-46.48c8.38-9,17.44-17.36,26.62-25.52,4.58-4.07,9.93-7.56,16.7-3.54,5.63,3.35,6.9,7.16,2.81,12.1-6.23,7.53-12.83,14.77-19.37,22-6.85,7.62-13.52,15.45-20.83,22.62-6.86,6.74-14.4,12.8-21.76,19-3.54,3-7.7,5.32-11,8.58A25.14,25.14,0,0,0-624-27.93c.58,3.5,2.89,5.39,6.68,5.47,7.09.15,13.27-2.28,19.35-5.69,5.13-2.87,10.66-5,16-7.47Zm-32.6-29,1.29,1.34a13,13,0,0,0,3-1.48c6.69-6,13.54-11.77,19.93-18,13.94-13.66,28.82-26.52,38.48-43.92.71-1.28.71-2.95,1-4.44-1.55.05-3.51-.49-4.59.25-6.27,4.3-13.24,8.08-18.28,13.58-10.4,11.35-19.91,23.55-29.45,35.67C-606.39-75.09-609.8-69.1-613.58-63.4Z" transform="translate(746.56 351.52)"/>



 <defs>
    <linearGradient id="Gradient1"   gradientTransform="rotate(90)">
        <stop class="stop1" offset="0%"/>
        <stop class="stop2" offset="77.08%"/>
        <stop class="stop3" offset="100%"/>
      </linearGradient>
     <style type="text/css">
     .stop1{
       stop-color:#9ad5ca
     }
     .stop2 {

       stop-color:	#7f5af0
     }
     .stop3 {
       stop-color: rgba(0, 0, 0, 0) 100%
     }

     </style>
  </defs>

</svg>
