<svg width="70" height="56" fill="none" xmlns="http://www.w3.org/2000/svg"><path d="M30.952 42.531c-.16.574-.57 1-.962 1.435-.162.177-.378.304-.552.47-1.07 1.013-2.145 2.036-3.618 2.43-.931.244-1.89.294-2.786-.188-.441-.238-.831-.498-.928-1.076-.067-.398-.405-.248-.603-.098-.858.648-1.69 1.331-2.548 1.987-.583.442-1.19.853-1.788 1.275-.923.65-1.828 1.325-2.779 1.936-.634.396-1.298.742-1.987 1.035-2.122.925-4.247 1.876-6.613 1.971-1.17.045-2.303-.101-3.373-.7C.935 52.18.262 50.91.065 49.295c-.259-2.123.332-4.113.985-6.084.442-1.324.956-2.623 1.472-3.919.284-.715.643-1.4.959-2.103.598-1.334 1.163-2.684 1.795-4.002.39-.79.823-1.556 1.298-2.297a434.943 434.943 0 0 1 3.69-5.807 85.045 85.045 0 0 1 2.037-2.98c.316-.442.694-.846 1.04-1.27.518-.634 1.023-1.28 1.545-1.906.648-.773 1.304-1.539 1.972-2.294.717-.81 1.435-1.622 2.188-2.4.595-.617 1.24-1.184 1.864-1.774.57-.539 1.127-1.092 1.713-1.613.994-.883 2.004-1.743 3.008-2.613.772-.67 1.505-1.404 2.333-2.003 1.93-1.399 3.926-2.716 6.213-3.467.987-.324 2.024-.584 3.09-.385 1.649.31 2.752 1.288 3.4 2.816.551 1.306.395 2.63.089 3.947-.19.821-.385 1.656-.713 2.428-.478 1.124-1.059 2.208-1.632 3.289a22.02 22.02 0 0 1-1.147 1.878c-.23.343-.53.638-.8.955l-.142-.097c.58-1.08 1.22-2.136 1.73-3.25 1.11-2.414 2.353-4.807 2.149-7.592-.118-1.604-1.06-2.92-2.454-3.366-1.282-.408-2.66-.267-3.934.298-.773.342-1.546.681-2.29 1.071-2.195 1.146-4.12 2.676-5.986 4.284-1.137.98-2.22 2.023-3.375 2.98a35.266 35.266 0 0 0-4.376 4.324c-1.435 1.69-2.914 3.345-4.327 5.054-.677.817-1.267 1.708-1.86 2.59-.994 1.474-2.022 2.927-2.908 4.463-1.425 2.475-2.853 4.944-4.018 7.573-.93 2.097-1.793 4.215-2.526 6.377-.552 1.624-.893 3.324-1.235 5.008-.2.98-.058 1.973.338 2.92.575 1.372 1.79 1.85 3.072 2.17a6.486 6.486 0 0 0 3.888-.257c1.389-.516 2.824-.933 4.163-1.556 1.22-.57 2.357-1.332 3.5-2.057a77.585 77.585 0 0 0 3.353-2.265c.883-.625 1.797-1.23 2.553-1.987.364-.364.392-1.062.576-1.606.074-.221.153-.436.239-.646.046-.117.163-.228.16-.34-.038-1.26.838-2.17 1.256-3.252.288-.745.706-1.443 1.098-2.145.285-.51.61-1 .935-1.487.64-.96 1.274-1.925 1.945-2.863.928-1.295 1.82-2.625 2.852-3.832 1.368-1.597 2.676-3.295 4.57-4.334a7.476 7.476 0 0 1 2.005-.714c1.043-.22 2.253.864 2.2 1.945a7.16 7.16 0 0 1-.882 3.044c-1.265 2.375-2.972 4.408-4.866 6.293-.906.903-1.767 1.853-2.718 2.705-1.802 1.618-3.657 3.176-5.483 4.768-.829.722-1.648 1.456-2.459 2.201-.623.574-.269 1.51.602 1.739 1.179.31 2.378.274 3.397-.574.993-.826 1.987-1.663 2.98-2.483.208-.148.426-.28.653-.397l.113.132zm-7.8.368.209.184c.299-.213.626-.396.89-.646.494-.463.925-.993 1.436-1.446 1.188-1.055 2.436-2.044 3.603-3.121 1.341-1.24 2.628-2.54 3.922-3.827.688-.685 1.392-1.365 1.996-2.121.716-.897 1.302-1.897 2.002-2.809.873-1.138 1.39-2.398 1.455-3.826.042-.927-.678-1.484-1.564-1.195-.572.186-1.193.398-1.63.784-1.29 1.133-2.588 2.288-3.718 3.572-1.104 1.245-2.04 2.64-2.995 4.007-1.028 1.471-2.053 2.952-2.965 4.496-.763 1.29-1.389 2.666-2.018 4.03-.285.606-.422 1.276-.624 1.918z" fill="url(#a)"/><path d="M33.276 40.58c-.17.318-.415.619-.499.959-.15.613-.655.639-1.104.747-.11.025-.375-.179-.39-.3-.041-.331.02-.676.025-1.016 0-.149.007-.408-.054-.43-.23-.076-.582-.195-.72-.085a26.35 26.35 0 0 0-2.054 1.821c-.442.442-.869.857-.898 1.617-.013.346-.634.803-1.07.96-.474.17-.833-.399-.521-.842a22.665 22.665 0 0 1 1.885-2.347c.641-.683 1.33-1.32 2.061-1.906.552-.442 1.178-.8 1.782-1.177a.837.837 0 0 1 .469-.126c.798.059 1.394-.303 1.848-.905.377-.5.818-.618 1.395-.418.16.056.393.08.529 0 1.226-.68 2.539-1.104 3.899-1.422.214-.05.407-.166.552-.331.603-.764 1.174-1.545 1.758-2.33.103-.15.218-.294.343-.429.51-.494.883-.47 1.35.065.274.318.552.634.835.943.312.34.567.324.741-.11.281-.695.509-1.411.745-2.122.67-2.019 1.334-4.038 1.995-6.06.237-.726.405-1.482.7-2.184.715-1.703 1.405-3.428 2.27-5.057.46-.863 1.225-1.582 1.924-2.295.54-.552 1.332-.46 1.89.216.347.422.662.958.76 1.487.289 1.514.441 3.045.23 4.6-.312 2.34-1.38 4.305-2.849 6.102-.682.834-1.299 1.722-1.953 2.578-.344.45-.71.883-1.057 1.325a4.122 4.122 0 0 0-.255.419l5.022-1.139.052.11a.973.973 0 0 1-.259.188c-1.02.306-2.04.609-3.066.897-.79.22-1.635.314-2.362.662-.662.316-1.174.919-1.782 1.356-.379.272-.822.456-1.215.71-.205.13-.456.294-.534.5a55.172 55.172 0 0 0-1.137 3.277c-.237.773-.38 1.568-.572 2.351-.176.723-.463 1.435-.52 2.17-.124 1.648-.37 3.32.32 4.924.275.642.494.763 1.23.76.285 0 .572.15.858.231-.255.237-.508.477-.767.709-.035.03-.11.022-.162.022-.883-.007-1.994-.94-2.14-1.821-.121-.738-.3-1.48-.295-2.22.023-1.134.106-2.265.25-3.39a12.89 12.89 0 0 1 .42-1.986c.405-1.444.85-2.877 1.276-4.314.047-.16.095-.317.135-.476.148-.602-.307-1.104-.927-.978-.665.132-1.323.3-1.97.505-.256.1-.48.267-.65.484a191.343 191.343 0 0 0-3.078 3.855c-.565.73-1.026 1.545-1.625 2.24-.417.502-.93.915-1.51 1.214-.785.377-1.524-.166-1.53-1.041 0-.454.111-.907.155-1.361a1.946 1.946 0 0 0-.023-.348l-.156-.038zm21.9-20.41c-.044-1.104-.128-2.184-.674-3.159-.4-.712-.98-.746-1.405-.056-.773 1.245-1.488 2.522-2.208 3.8-.259.464-.48.948-.662 1.447-.35.963-.65 1.945-.983 2.914-.53 1.546-1.083 3.077-1.597 4.624-.364 1.095-.686 2.208-1.01 3.312-.042.145.01.316.017.475.186-.031.413 0 .552-.104a7.205 7.205 0 0 0 1.164-.994c1.351-1.537 2.702-3.078 3.99-4.67.522-.645.822-1.467 1.324-2.132a6.258 6.258 0 0 0 1.175-2.803c.149-.877.215-1.77.317-2.658v.003zM34.534 41.648l.205.077c.067-.017.158-.012.199-.055.888-.916 1.771-1.836 2.65-2.76.059-.064.097-.254.065-.277a.502.502 0 0 0-.33-.11c-.562.085-1.126.167-1.675.305-.208.053-.497.22-.547.395-.23.796-.386 1.613-.567 2.422v.003zm4.857-5.071c-.891.317-1.734.358-2.392 1.033.89.21 1.96-.22 2.396-1.037l-.004.004zm2.94-1.877c.387-.058.895.194 1.048-.364.047-.169-.203-.522-.404-.63-.263-.145-.582.346-.639.993l-.004.001z" fill="url(#b)"/><path d="M58.624 30.366c.428-.168.844-.394 1.288-.49 1.037-.22 2.082-.433 3.135-.551 1.729-.196 3.462-.15 5.097.512 2.405.975 2.173 3.068.987 4.403-.766.88-1.6 1.696-2.494 2.443-.486.398-1.169.552-1.773.802a.41.41 0 0 1-.298-.11c.018-.17.033-.392.143-.493.33-.31.725-.552 1.066-.859.24-.212.427-.48.648-.714.22-.234.486-.471.714-.72.49-.533 1.026-1.036 1.442-1.624.552-.772.22-1.705-.638-2.127-1.68-.826-3.473-.883-5.277-.747-1.111.087-2.208.319-3.318.479-.21.03-.426.022-.64.032-.029-.08-.056-.158-.082-.236z" fill="url(#c)"/><path d="M61.117 44.315c-.01.61-.359.883-1.122.87-.453-.006-.537-.324-.537-.677 0-.4.461-1.04.724-1.042.578-.006.935.322.935.849z" fill="url(#d)"/><defs><linearGradient id="a" x1="180.855" y1="25.389" x2="180.855" y2="66.42" gradientUnits="userSpaceOnUse"><stop stop-color="#7F5AF0"/><stop offset=".771" stop-color="#2CB67D"/><stop offset="1"/></linearGradient><linearGradient id="b" x1="167.724" y1="51.26" x2="167.724" y2="81.437" gradientUnits="userSpaceOnUse"><stop stop-color="#7F5AF0"/><stop offset=".771"/><stop offset="1"/></linearGradient><linearGradient id="c" x1="153.94" y1="84.007" x2="153.94" y2="95.383" gradientUnits="userSpaceOnUse"><stop stop-color="#7F5AF0"/><stop offset=".771"/><stop offset="1"/></linearGradient><linearGradient id="d" x1="139.699" y1="84.843" x2="139.699" y2="86.502" gradientUnits="userSpaceOnUse"><stop stop-color="#7F5AF0"/><stop offset=".771"/><stop offset="1"/></linearGradient></defs></svg>