<svg xmlns="http://www.w3.org/2000/svg" fill='current' viewBox="0 0 650.15 464.79"><g data-name="Layer 2"><g data-name="Layer 1"><path d="M280.59 363.86c-1.61 5.12-5.17 9.06-8.81 12.89-1.51 1.58-3.4 2.79-5 4.29-9.57 9-19.15 18.18-32.27 21.74-9.31 2.51-18.83 3-27.35-2.69-2.58-1.72-5.36-4.47-6.14-7.28-1.25-4.58-3.47-4.06-6-2.16-7.66 5.73-15 11.82-22.67 17.59-5.41 4.1-11 7.93-16.57 11.84-8.35 5.89-16.53 12-25.13 17.52a128.51 128.51 0 0 1-18 9.34c-19.21 8.36-38.43 17-59.84 17.79-10.74.39-21.07-1.15-31-6.53C10.42 452 5 442 1.77 430.66c-2.94-10.5-1.9-21.43.77-32q4.55-18.06 9.5-36c.55-2 2-3.77 3-5.67 1.29-2.47 3.24-4.84 3.69-7.47 2.2-12.88 8.57-23.97 14.07-35.52s10.13-23.72 15.67-35.36a203.58 203.58 0 0 1 11.79-20.74q16.37-26.14 33.14-52c5.92-9.13 12.13-18.07 18.43-26.94 2.86-4 6.29-7.64 9.41-11.47 4.79-5.87 9.36-11.93 14.33-17.63 13.63-15.63 27.29-31.23 41.23-46.59 4.08-4.5 9.18-8.06 13.69-12.19 5-4.56 9.72-9.4 14.77-13.89 9-8 18.14-15.75 27.21-23.62 7-6.07 13.62-12.71 21.11-18.11 17.48-12.62 35.51-24.57 56.22-31.33 8.94-2.91 18.31-5.25 27.95-3.45 14.73 2.76 24.59 11.53 30.53 25.06 5.16 11.76 3.74 23.78 1.09 35.7-1.69 7.6-3.59 15.28-6.62 22.42-4.32 10.16-9.59 20-14.78 29.72a197.5 197.5 0 0 1-10.36 17.05c-2.07 3.09-4.8 5.75-7.24 8.6l-1.28-.88c5.28-9.81 11.11-19.37 15.73-29.48 9.93-21.69 21.06-43.15 19.43-68.17-.91-14-9.08-26.24-21.85-30.7-10.54-3.69-22.11-2.78-32.77 1.38a252 252 0 0 0-24.41 11.15c-19.43 10.09-36.44 23.67-53 37.82-10.69 9.14-20.82 19-31.63 27.94a311.07 311.07 0 0 0-38.54 38c-12.86 15.17-26.18 30-38.87 45.29-6.43 7.77-12.1 16.2-17.75 24.58-9 13.32-18.31 26.46-26.31 40.36C66.25 258.87 53.32 281.2 42.8 305c-8.4 19-16.21 38.12-22.86 57.68-4.93 14.51-8 29.72-11 44.8-1.17 5.86-.61 12.32.38 18.32 2.84 17.31 15.28 24.8 30.93 28.25a60.74 60.74 0 0 0 34.69-2.48c11.18-4.13 22.81-7.25 33.52-12.33 12.23-5.79 23.84-13 35.37-20.09 10.51-6.51 20.66-13.6 30.75-20.75 8-5.66 16.17-11.21 23.12-18 3.14-3.05 3.49-9 5.1-13.57.84-2.41 1.67-4.81 2.54-7.2.34-.93 1.14-1.82 1.12-2.71-.31-11.38 7.54-19.62 11.37-29.39 2.58-6.58 6.28-12.74 9.75-18.94 2.66-4.76 5.62-9.36 8.64-13.9 5.79-8.69 11.53-17.41 17.61-25.89 8.39-11.7 16.43-23.75 25.8-34.65 12.5-14.55 24.41-30.06 41.77-39.42a65.37 65.37 0 0 1 17.73-6.17c9.45-1.94 20.32 7.9 19.83 17.67a65 65 0 0 1-8.06 27.52c-11.47 21.47-26.9 39.85-44 56.93-8.07 8.05-15.75 16.52-24.22 24.12-16.44 14.73-33.33 28.94-50 43.44-7.5 6.54-14.94 13.15-22.23 19.92-5.65 5.23-2.2 13.69 5.56 15.69 10.7 2.76 21.51 2.39 30.73-5.26 8.87-7.37 17.7-14.8 26.61-22.12a66.11 66.11 0 0 1 5.92-3.94zM209.78 367l2 1.79c2.71-1.91 5.68-3.53 8.07-5.78 4.22-4 7.81-8.64 12.15-12.46 11.79-10.37 24-20.23 35.72-30.72 9.95-8.94 19.44-18.38 29-27.78 6-6 11.72-12.2 17.51-18.37a60.28 60.28 0 0 0 5.07-6.1c5.84-8.21 11.23-16.77 17.45-24.67C344.9 232.55 349.6 221 350.28 208c.43-8.44-6-13.52-14.07-10.9-5.32 1.73-11 3.79-15.16 7.34-10.91 9.37-22.19 18.7-31.27 29.74a639.67 639.67 0 0 0-41.66 56.37c-11.39 17.43-20.87 36.15-30.55 54.63-3.57 6.75-5.25 14.5-7.79 21.82z"/><path d="M301.31 346.15c-1.58 3.16-3.26 6.28-4.7 9.5s-6.74 6.74-9.88 6c-1.25-.29-3.05-1.7-3.16-2.75-.32-3 .16-6.12.21-9.19 0-1.35.18-3.62-.44-3.9-1.91-.86-5.1-2.07-6.13-1.19a304.21 304.21 0 0 0-22.62 20.89c-2.31 2.42-3.08 6.57-3.88 10.08-.68 2.95-7.64 9.72-10.62 9.46-4.92-.44-6.93-3.56-4.47-7.89 2.78-4.89 5.5-10.17 9.51-13.93 11.85-11.09 24.09-21.8 36.71-32 3.29-2.66 8.44-3.36 12.88-4.17 5.57-1 10.14-3.45 13.39-7.9 3.57-4.88 7.78-6.23 13.4-4a6.47 6.47 0 0 0 4.34-.07c4.72-1.86 9.23-4.27 14-6 6.52-2.37 13.32-4 19.77-6.56a20.82 20.82 0 0 0 8.12-5.79c5.6-6.78 10.57-14.07 16-21 5-6.39 9.49-6.12 14.44.29 2 2.61 4.44 4.89 6.7 7.3 2.87 3.06 5.17 3 6.71-.88 2.63-6.6 4.72-13.41 7-20.15q4.47-13.44 8.84-26.9c3.61-11 7.07-22.11 10.81-33.1 3-8.9 6.28-17.73 9.6-26.52 2-5.27 4.21-10.46 6.52-15.6 6.13-13.64 13.06-26.63 24.64-36.8 7.08-6.22 14.42-5.15 19.7 1.87a39.32 39.32 0 0 1 6.83 16.18c3.59 19.73 3.6 39.73-4 58.41-4.79 11.81-12.58 22.5-19.69 33.25-5.55 8.4-12.1 16.14-18.26 24.12-3.33 4.3-6.82 8.48-10.16 12.78a22.85 22.85 0 0 0-1.82 3.45l45.4-10.29.53 1.86c-4.62 1.5-9.2 3.16-13.87 4.46-12.11 3.34-24.3 6.37-36.36 9.88a22.69 22.69 0 0 0-8.06 4.71c-6.74 5.82-12.65 12.66-21.78 15.21-1.61.45-3.12 2.93-3.78 4.8-6.11 17-12.36 34-15.65 51.88-1.12 6.12-4 12-4.37 18.14-.78 14.41-3.16 29 2.65 43.14 2.8 6.78 4.52 8 11.94 7.79 2.4-.06 4.83 1 7.24 1.6-1.82 2.09-3.55 4.27-5.5 6.23a4.26 4.26 0 0 1-2.75.89c-7.92.08-18.06-8.39-19.4-16.38-1.12-6.66-2.71-13.38-2.67-20.07a286 286 0 0 1 2.23-30.64 116.42 116.42 0 0 1 3.81-17.94c3.66-13.06 7.67-26 11.53-39 .42-1.43.86-2.85 1.22-4.3 1.35-5.45-2.73-10-8.31-8.9a165.05 165.05 0 0 0-17.82 4.57 13.66 13.66 0 0 0-5.9 4.34c-9.4 11.52-18.74 23.1-27.85 34.86-5.11 6.59-9.28 13.95-14.7 20.25a44.26 44.26 0 0 1-13.64 11c-7.13 3.44-13.76-1.44-13.9-9.35-.07-3.44.66-6.89 1-10.34.18-1.68.36-3.36.55-5zm198.47-184.22-.6-.1c0-1.82.12-3.66 0-5.48-.62-8.64-1.4-17.3-6.49-24.71-3.15-4.59-7.61-4.61-11.08-.25a86.89 86.89 0 0 0-6.39 8.89 247.12 247.12 0 0 0-25.26 54.91c-8.8 28-18.53 55.64-27.79 83.46-.35 1.05-.26 3.15.26 3.39a5.21 5.21 0 0 0 4.12.18 40.45 40.45 0 0 0 7.55-5.57c15.09-14.49 29.42-29.65 40.83-47.3 3.94-6.09 7-12.81 11.38-18.51 5.67-7.35 8.76-15.57 10.35-24.41 1.43-8.09 2.1-16.33 3.12-24.5zM314.11 356.74c1.42-.55 2.51-.65 3.09-1.25q11.7-12.06 23.25-24.29c.58-.61 1.12-2.26.84-2.51a4.12 4.12 0 0 0-2.93-1.13c-5.24.78-10.48 1.63-15.64 2.81-1.64.38-3.92 1.57-4.36 2.9-2.48 7.4-5.25 14.84-4.25 23.47zm20.72-37.16c9.58 1.33 19-2.79 21.52-9.34-7.5 2.38-14.97 3.06-21.52 9.34zm48.31-27.48 1 1.9 9.13-3.82c-1.29-2.13-2.57-6.07-3.88-6.08-4.93-.03-4.96 4.67-6.25 8zM530.87 253.8c3.87-1.51 7.63-3.56 11.64-4.42 9.39-2 18.84-3.91 28.37-5C586.51 242.62 602.2 243 617 249c21.76 8.81 19.65 27.74 8.92 39.81a200.76 200.76 0 0 1-22.6 22.11c-4.39 3.59-10.58 5-16 7.24a3.74 3.74 0 0 1-2.7-1c.17-1.54.3-3.53 1.3-4.46 3-2.79 6.56-5 9.65-7.76 2.16-1.92 3.85-4.34 5.85-6.45s4.4-4.27 6.47-6.52c4.43-4.82 9.27-9.37 13-14.68 5-7 2-15.42-5.78-19.23-15.2-7.46-31.41-8-47.73-6.76-10.06.79-20 2.89-30 4.33-1.91.28-3.86.21-5.79.3zM650.15 379.92c-.09 5.52-3.24 8-10.15 7.87-4.1-.05-4.86-2.92-4.86-6.12 0-3.61 4.18-9.39 6.55-9.42 5.31-.04 8.54 2.92 8.46 7.67z"/></g></g></svg>
